<svg xmlns="http://www.w3.org/2000/svg" xmlns:xlink="http://www.w3.org/1999/xlink" width="480" zoomAndPan="magnify" viewBox="0 0 360 359.999987" height="480" preserveAspectRatio="xMidYMid meet" version="1.0"><defs><clipPath id="d25b98441f"><path d="M 243.792969 144.734375 L 319.46875 144.734375 L 319.46875 221.609375 L 243.792969 221.609375 Z M 243.792969 144.734375 " clip-rule="nonzero"/></clipPath><clipPath id="968eb965ac"><path d="M 117.308594 184.148438 L 247.96875 184.148438 L 247.96875 293.191406 L 117.308594 293.191406 Z M 117.308594 184.148438 " clip-rule="nonzero"/></clipPath></defs><path fill="#8ac44f" d="M 137.238281 91.410156 C 186.878906 84.453125 190.890625 173.347656 144.957031 171.195312 C 108.03125 169.46875 94.097656 97.460938 137.238281 91.410156 " fill-opacity="1" fill-rule="evenodd"/><path fill="#8ac44f" d="M 217.023438 91.414062 C 271.695312 79.476562 265.3125 176.601562 214.453125 171.195312 C 174.195312 166.917969 182.039062 99.046875 217.023438 91.414062 " fill-opacity="1" fill-rule="evenodd"/><path fill="#8ac44f" d="M 119.226562 198.222656 C 99.785156 240.660156 40.535156 210.679688 47.160156 168.621094 C 54.132812 124.324219 133.363281 146.90625 119.226562 198.222656 " fill-opacity="1" fill-rule="evenodd"/><g clip-path="url(#d25b98441f)"><path fill="#8ac44f" d="M 280.082031 145.460938 C 292.871094 142.984375 308.855469 147.527344 314.824219 158.324219 C 331.289062 188.121094 300.945312 224.53125 271.070312 221.378906 C 254.664062 219.65625 245.191406 205.691406 244.046875 193.074219 C 241.609375 166.042969 260.898438 149.171875 280.082031 145.460938 " fill-opacity="1" fill-rule="evenodd"/></g><g clip-path="url(#968eb965ac)"><path fill="#8ac44f" d="M 169.410156 185.347656 C 214.5 177.574219 255.890625 210.066406 246.625 265.132812 C 244.703125 276.535156 234.890625 292.652344 220.882812 293.445312 C 209.578125 294.089844 196.355469 283.085938 182.28125 283.152344 C 164.800781 283.238281 151.027344 298.734375 134.664062 290.875 C 120.921875 284.265625 115.367188 257.550781 117.9375 238.113281 C 121.636719 210.089844 142.238281 190.035156 169.410156 185.347656 " fill-opacity="1" fill-rule="evenodd"/></g></svg>